<svg width="1092" height="302" viewBox="0 0 1092 302" fill="none" xmlns="http://www.w3.org/2000/svg">
<path d="M1 156.398C34.3001 155.868 59.0177 285.891 95.4961 285.311C131.963 284.73 173.658 146.482 214.876 145.822C256.105 145.162 270.546 252.422 307.191 251.832C343.835 251.251 358.73 57.5324 401.808 56.852C444.887 56.1616 440.214 299.879 479.428 299.248C518.652 298.618 549.383 157.689 578.121 157.229C606.847 156.768 613.89 205.456 647.29 204.925C680.69 204.395 708.841 3.52198 739.992 3.0217C771.155 2.52142 782.251 238.724 841.332 237.774C900.424 236.833 906.194 64.7665 934.776 64.3062C963.359 63.8459 982.108 209.728 1012.24 209.248C1042.37 208.768 1062.45 100.246 1091 99.7862" stroke="url(#paint0_linear)" stroke-width="0.75" stroke-miterlimit="10"/>
<path d="M405.165 56.852C405.165 58.5229 403.659 59.8837 401.81 59.8837C399.96 59.8837 398.454 58.5229 398.454 56.852C398.454 55.1811 399.96 53.8203 401.81 53.8203C403.67 53.8303 405.165 55.1811 405.165 56.852Z" fill="#007AFF"/>
<path d="M480.591 298.968C480.591 300.639 479.085 302 477.235 302C475.386 302 473.88 300.639 473.88 298.968C473.88 297.297 475.386 295.937 477.235 295.937C479.096 295.947 480.591 297.297 480.591 298.968Z" fill="#007AFF"/>
<path d="M584.478 158.029C584.478 159.7 582.972 161.061 581.123 161.061C579.274 161.061 577.768 159.7 577.768 158.029C577.768 156.358 579.274 154.997 581.123 154.997C582.983 154.997 584.478 156.358 584.478 158.029Z" fill="#007AFF"/>
<path d="M647.513 205.876C647.513 207.547 646.007 208.908 644.157 208.908C642.308 208.908 640.802 207.547 640.802 205.876C640.802 204.205 642.308 202.844 644.157 202.844C646.007 202.844 647.513 204.195 647.513 205.876Z" fill="#007AFF"/>
<path d="M742.75 3.03171C742.75 4.70265 741.244 6.06341 739.395 6.06341C737.545 6.06341 736.039 4.70265 736.039 3.03171C736.039 1.36077 737.545 0 739.395 0C741.244 0 742.75 1.36077 742.75 3.03171Z" fill="#007AFF"/>
<path d="M839.207 241.046C841.06 241.046 842.563 239.688 842.563 238.014C842.563 236.34 841.06 234.982 839.207 234.982C837.354 234.982 835.852 236.34 835.852 238.014C835.852 239.688 837.354 241.046 839.207 241.046Z" fill="#007AFF"/>
<path d="M937.48 64.4563C937.48 66.1272 935.973 67.488 934.124 67.488C932.275 67.488 930.769 66.1272 930.769 64.4563C930.769 62.7853 932.275 61.4246 934.124 61.4246C935.985 61.4246 937.48 62.7853 937.48 64.4563Z" fill="#007AFF"/>
<path d="M309.097 251.822C309.097 253.493 307.591 254.853 305.741 254.853C303.892 254.853 302.386 253.493 302.386 251.822C302.386 250.151 303.892 248.79 305.741 248.79C307.591 248.79 309.097 250.151 309.097 251.822Z" fill="#007AFF"/>
<path d="M218.133 145.202C218.133 146.873 216.627 148.233 214.777 148.233C212.928 148.233 211.422 146.873 211.422 145.202C211.422 143.531 212.928 142.17 214.777 142.17C216.627 142.17 218.133 143.531 218.133 145.202Z" fill="#007AFF"/>
<path d="M98.7305 285.391C98.7305 287.062 97.2244 288.422 95.375 288.422C93.5256 288.422 92.0195 287.062 92.0195 285.391C92.0195 283.72 93.5256 282.359 95.375 282.359C97.2244 282.359 98.7305 283.71 98.7305 285.391Z" fill="#007AFF"/>
<path d="M1016.12 209.458C1016.12 211.129 1014.61 212.49 1012.76 212.49C1010.91 212.49 1009.41 211.129 1009.41 209.458C1009.41 207.787 1010.91 206.426 1012.76 206.426C1014.61 206.426 1016.12 207.787 1016.12 209.458Z" fill="#007AFF"/>
<path d="M405.165 56.852C405.165 58.5229 403.659 59.8837 401.81 59.8837C399.96 59.8837 398.454 58.5229 398.454 56.852C398.454 55.1811 399.96 53.8203 401.81 53.8203C403.67 53.8303 405.165 55.1811 405.165 56.852Z" fill="url(#paint1_linear)"/>
<path d="M480.591 298.968C480.591 300.639 479.085 302 477.235 302C475.386 302 473.88 300.639 473.88 298.968C473.88 297.297 475.386 295.937 477.235 295.937C479.096 295.947 480.591 297.297 480.591 298.968Z" fill="url(#paint2_linear)"/>
<path d="M584.478 158.029C584.478 159.7 582.972 161.061 581.123 161.061C579.274 161.061 577.768 159.7 577.768 158.029C577.768 156.358 579.274 154.997 581.123 154.997C582.983 154.997 584.478 156.358 584.478 158.029Z" fill="url(#paint3_linear)"/>
<path d="M647.513 205.876C647.513 207.547 646.007 208.908 644.157 208.908C642.308 208.908 640.802 207.547 640.802 205.876C640.802 204.205 642.308 202.844 644.157 202.844C646.007 202.844 647.513 204.195 647.513 205.876Z" fill="url(#paint4_linear)"/>
<path d="M742.75 3.03171C742.75 4.70265 741.244 6.06341 739.395 6.06341C737.545 6.06341 736.039 4.70265 736.039 3.03171C736.039 1.36077 737.545 0 739.395 0C741.244 0 742.75 1.36077 742.75 3.03171Z" fill="url(#paint5_linear)"/>
<path d="M839.207 241.046C841.06 241.046 842.563 239.688 842.563 238.014C842.563 236.34 841.06 234.982 839.207 234.982C837.354 234.982 835.852 236.34 835.852 238.014C835.852 239.688 837.354 241.046 839.207 241.046Z" fill="url(#paint6_linear)"/>
<path d="M937.48 64.4563C937.48 66.1272 935.973 67.488 934.124 67.488C932.275 67.488 930.769 66.1272 930.769 64.4563C930.769 62.7853 932.275 61.4246 934.124 61.4246C935.985 61.4246 937.48 62.7853 937.48 64.4563Z" fill="url(#paint7_linear)"/>
<path d="M309.097 251.822C309.097 253.493 307.591 254.853 305.741 254.853C303.892 254.853 302.386 253.493 302.386 251.822C302.386 250.151 303.892 248.79 305.741 248.79C307.591 248.79 309.097 250.151 309.097 251.822Z" fill="url(#paint8_linear)"/>
<path d="M218.133 145.202C218.133 146.873 216.627 148.233 214.777 148.233C212.928 148.233 211.422 146.873 211.422 145.202C211.422 143.531 212.928 142.17 214.777 142.17C216.627 142.17 218.133 143.531 218.133 145.202Z" fill="url(#paint9_linear)"/>
<path d="M98.7305 285.391C98.7305 287.062 97.2244 288.422 95.375 288.422C93.5256 288.422 92.0195 287.062 92.0195 285.391C92.0195 283.72 93.5256 282.359 95.375 282.359C97.2244 282.359 98.7305 283.71 98.7305 285.391Z" fill="url(#paint10_linear)"/>
<path d="M1016.12 209.458C1016.12 211.129 1014.61 212.49 1012.76 212.49C1010.91 212.49 1009.41 211.129 1009.41 209.458C1009.41 207.787 1010.91 206.426 1012.76 206.426C1014.61 206.426 1016.12 207.787 1016.12 209.458Z" fill="url(#paint11_linear)"/>
<defs>
<linearGradient id="paint0_linear" x1="1.0838" y1="160.874" x2="1091.78" y2="139.502" gradientUnits="userSpaceOnUse">
<stop offset="0.1087" stop-color="#FF00FF"/>
<stop offset="0.3891" stop-color="#007AFF"/>
<stop offset="0.6126" stop-color="#67EDFF"/>
<stop offset="1" stop-color="#007AFF"/>
</linearGradient>
<linearGradient id="paint1_linear" x1="92.0217" y1="151.001" x2="1016.11" y2="151.001" gradientUnits="userSpaceOnUse">
<stop offset="0.1087" stop-color="#FF00FF"/>
<stop offset="0.3891" stop-color="#007AFF"/>
<stop offset="0.6126" stop-color="#67EDFF"/>
<stop offset="1" stop-color="#007AFF"/>
</linearGradient>
<linearGradient id="paint2_linear" x1="92.0213" y1="151.001" x2="1016.11" y2="151.001" gradientUnits="userSpaceOnUse">
<stop offset="0.1087" stop-color="#FF00FF"/>
<stop offset="0.3891" stop-color="#007AFF"/>
<stop offset="0.6126" stop-color="#67EDFF"/>
<stop offset="1" stop-color="#007AFF"/>
</linearGradient>
<linearGradient id="paint3_linear" x1="92.0258" y1="151.001" x2="1016.11" y2="151.001" gradientUnits="userSpaceOnUse">
<stop offset="0.1087" stop-color="#FF00FF"/>
<stop offset="0.3891" stop-color="#007AFF"/>
<stop offset="0.6126" stop-color="#67EDFF"/>
<stop offset="1" stop-color="#007AFF"/>
</linearGradient>
<linearGradient id="paint4_linear" x1="92.0222" y1="151.001" x2="1016.11" y2="151.001" gradientUnits="userSpaceOnUse">
<stop offset="0.1087" stop-color="#FF00FF"/>
<stop offset="0.3891" stop-color="#007AFF"/>
<stop offset="0.6126" stop-color="#67EDFF"/>
<stop offset="1" stop-color="#007AFF"/>
</linearGradient>
<linearGradient id="paint5_linear" x1="92.0169" y1="151.001" x2="1016.12" y2="151.001" gradientUnits="userSpaceOnUse">
<stop offset="0.1087" stop-color="#FF00FF"/>
<stop offset="0.3891" stop-color="#007AFF"/>
<stop offset="0.6126" stop-color="#67EDFF"/>
<stop offset="1" stop-color="#007AFF"/>
</linearGradient>
<linearGradient id="paint6_linear" x1="92.0117" y1="151.001" x2="1016.12" y2="151.001" gradientUnits="userSpaceOnUse">
<stop offset="0.1087" stop-color="#FF00FF"/>
<stop offset="0.3891" stop-color="#007AFF"/>
<stop offset="0.6126" stop-color="#67EDFF"/>
<stop offset="1" stop-color="#007AFF"/>
</linearGradient>
<linearGradient id="paint7_linear" x1="92.0107" y1="151.001" x2="1016.12" y2="151.001" gradientUnits="userSpaceOnUse">
<stop offset="0.1087" stop-color="#FF00FF"/>
<stop offset="0.3891" stop-color="#007AFF"/>
<stop offset="0.6126" stop-color="#67EDFF"/>
<stop offset="1" stop-color="#007AFF"/>
</linearGradient>
<linearGradient id="paint8_linear" x1="92.0202" y1="151.001" x2="1016.12" y2="151.001" gradientUnits="userSpaceOnUse">
<stop offset="0.1087" stop-color="#FF00FF"/>
<stop offset="0.3891" stop-color="#007AFF"/>
<stop offset="0.6126" stop-color="#67EDFF"/>
<stop offset="1" stop-color="#007AFF"/>
</linearGradient>
<linearGradient id="paint9_linear" x1="92.0207" y1="151.001" x2="1016.12" y2="151.001" gradientUnits="userSpaceOnUse">
<stop offset="0.1087" stop-color="#FF00FF"/>
<stop offset="0.3891" stop-color="#007AFF"/>
<stop offset="0.6126" stop-color="#67EDFF"/>
<stop offset="1" stop-color="#007AFF"/>
</linearGradient>
<linearGradient id="paint10_linear" x1="92.0205" y1="151.001" x2="1016.12" y2="151.001" gradientUnits="userSpaceOnUse">
<stop offset="0.1087" stop-color="#FF00FF"/>
<stop offset="0.3891" stop-color="#007AFF"/>
<stop offset="0.6126" stop-color="#67EDFF"/>
<stop offset="1" stop-color="#007AFF"/>
</linearGradient>
<linearGradient id="paint11_linear" x1="92.0228" y1="151.001" x2="1016.11" y2="151.001" gradientUnits="userSpaceOnUse">
<stop offset="0.1087" stop-color="#FF00FF"/>
<stop offset="0.3891" stop-color="#007AFF"/>
<stop offset="0.6126" stop-color="#67EDFF"/>
<stop offset="1" stop-color="#007AFF"/>
</linearGradient>
</defs>
</svg>
