<svg xmlns="http://www.w3.org/2000/svg" width="800" height="600" viewBox="0 0 800 600" preserveAspectRatio="xMidYMid meet" style="width: 100%;"><defs><clipPath id="animationMask_dFgqKzpS9n"><rect width="800" height="600" x="0" y="0"></rect></clipPath><clipPath id="cp_bzHEmb8R"><path d="M0,0 L800,0 L800,600 L0,600z"></path></clipPath><clipPath id="cp_CCLui3Em"><path d="M0,0 L800,0 L800,600 L0,600z"></path></clipPath><clipPath id="cp_2WOmirOA"><path d="M0,0 L800,0 L800,600 L0,600z"></path></clipPath><clipPath id="cp_StBhw4dg"><path d="M0,0 L800,0 L800,600 L0,600z"></path></clipPath><clipPath id="cp_cILH9iMM"><path d="M0,0 L800,0 L800,600 L0,600z"></path></clipPath><clipPath id="cp_DK6mEerF"><path d="M0,0 L800,0 L800,600 L0,600z"></path></clipPath><clipPath id="cp_IZ0Enn1H"><path d="M0,0 L800,0 L800,600 L0,600z"></path></clipPath><clipPath id="cp_5WCavoRF"><path d="M0,0 L800,0 L800,600 L0,600z"></path></clipPath></defs><g clip-path="url(#animationMask_dFgqKzpS9n)"><g class="png" transform="matrix(1,0,0,1,0,0)" opacity="1"><image width="800px" height="600px" preserveAspectRatio="xMidYMid slice" xlink:href="img/Artboard4.png"></image></g><g class="png" style="display: none;"><image width="800px" height="600px" preserveAspectRatio="xMidYMid slice" xlink:href="img/Artboard2.png"></image></g><g class="png" transform="matrix(1,0,0,1,0,0)" opacity="1"><image width="800px" height="600px" preserveAspectRatio="xMidYMid slice" xlink:href="img/Artboard3.png"></image></g><g clip-path="url(#cp_5WCavoRF)" transform="matrix(1,0,0,1,0,0)" opacity="1"><g transform="matrix(1,0,0,1,400.125,299.75)" opacity="0.06483174628191199" style="user-select: none; display: block;"><g opacity="1" transform="matrix(1.32504,0,0,1.32504,0.80804944,3.0719530400000004)"><path fill="rgb(0,255,246)" fill-opacity="1" d="M0 0 M-3,-15.25 C-3,-15.25 -13.25,-9.25 -13.25,-9.25 C-13.25,-9.25 -2.625,-2.625 -2.625,-2.625 C-2.625,-2.625 7.5,-9.25 7.5,-9.25 C7.5,-9.25 -3,-15.25 -3,-15.25z" style="display: block;"></path></g></g><g transform="matrix(1,0,0,1,315.125,322.75)" opacity="0.06483174628191199" style="user-select: none; display: block;"><g opacity="1" transform="matrix(1.32504,0,0,1.32504,0.80804944,3.0719530400000004)"><path fill="rgb(0,255,246)" fill-opacity="1" d="M0 0 M-3,-15.25 C-3,-15.25 -13.25,-9.25 -13.25,-9.25 C-13.25,-9.25 -2.625,-2.625 -2.625,-2.625 C-2.625,-2.625 7.5,-9.25 7.5,-9.25 C7.5,-9.25 -3,-15.25 -3,-15.25z" style="display: block;"></path></g></g><g transform="matrix(1,0,0,1,338.125,415.75)" opacity="0.06483174628191199" style="user-select: none; display: block;"><g opacity="1" transform="matrix(1.32504,0,0,1.32504,0.80804944,3.0719530400000004)"><path fill="rgb(0,255,246)" fill-opacity="1" d="M0 0 M-3,-15.25 C-3,-15.25 -13.25,-9.25 -13.25,-9.25 C-13.25,-9.25 -2.625,-2.625 -2.625,-2.625 C-2.625,-2.625 7.5,-9.25 7.5,-9.25 C7.5,-9.25 -3,-15.25 -3,-15.25z" style="display: block;"></path></g></g><g transform="matrix(1,0,0,1,580.625,488.75)" opacity="0.06483174628191199" style="user-select: none; display: block;"><g opacity="1" transform="matrix(1.32504,0,0,1.32504,0.80804944,3.0719530400000004)"><path fill="rgb(0,255,246)" fill-opacity="1" d="M0 0 M-3,-15.25 C-3,-15.25 -13.25,-9.25 -13.25,-9.25 C-13.25,-9.25 -2.625,-2.625 -2.625,-2.625 C-2.625,-2.625 7.5,-9.25 7.5,-9.25 C7.5,-9.25 -3,-15.25 -3,-15.25z" style="display: block;"></path></g></g><g transform="matrix(1,0,0,1,595.625,338.25)" opacity="0.06483174628191199" style="user-select: none; display: block;"><g opacity="1" transform="matrix(1.32504,0,0,1.32504,0.80804944,3.0719530400000004)"><path fill="rgb(0,255,246)" fill-opacity="1" d="M0 0 M-3,-15.25 C-3,-15.25 -13.25,-9.25 -13.25,-9.25 C-13.25,-9.25 -2.625,-2.625 -2.625,-2.625 C-2.625,-2.625 7.5,-9.25 7.5,-9.25 C7.5,-9.25 -3,-15.25 -3,-15.25z" style="display: block;"></path></g></g><g transform="matrix(1,0,0,1,647.625,249.75)" opacity="0.06483174628191199" style="user-select: none; display: block;"><g opacity="1" transform="matrix(1.32504,0,0,1.32504,0.80804944,3.0719530400000004)"><path fill="rgb(0,255,246)" fill-opacity="1" d="M0 0 M-3,-15.25 C-3,-15.25 -13.25,-9.25 -13.25,-9.25 C-13.25,-9.25 -2.625,-2.625 -2.625,-2.625 C-2.625,-2.625 7.5,-9.25 7.5,-9.25 C7.5,-9.25 -3,-15.25 -3,-15.25z" style="display: block;"></path></g></g><g transform="matrix(1,0,0,1,223.125,220.75)" opacity="0.06483174628191199" style="user-select: none; display: block;"><g opacity="1" transform="matrix(1.32504,0,0,1.32504,0.80804944,3.0719530400000004)"><path fill="rgb(0,255,246)" fill-opacity="1" d="M0 0 M-3,-15.25 C-3,-15.25 -13.25,-9.25 -13.25,-9.25 C-13.25,-9.25 -2.625,-2.625 -2.625,-2.625 C-2.625,-2.625 7.5,-9.25 7.5,-9.25 C7.5,-9.25 -3,-15.25 -3,-15.25z" style="display: block;"></path></g></g><g transform="matrix(1,0,0,1,140.625,256.75)" opacity="0.06483174628191199" style="user-select: none; display: block;"><g opacity="1" transform="matrix(1.32504,0,0,1.32504,0.80804944,3.0719530400000004)"><path fill="rgb(0,255,246)" fill-opacity="1" d="M0 0 M-3,-15.25 C-3,-15.25 -13.25,-9.25 -13.25,-9.25 C-13.25,-9.25 -2.625,-2.625 -2.625,-2.625 C-2.625,-2.625 7.5,-9.25 7.5,-9.25 C7.5,-9.25 -3,-15.25 -3,-15.25z" style="display: block;"></path></g></g><g transform="matrix(1,0,0,1,160.625,317.75)" opacity="0.06483174628191199" style="user-select: none; display: block;"><g opacity="1" transform="matrix(1.32504,0,0,1.32504,0.80804944,3.0719530400000004)"><path fill="rgb(0,255,246)" fill-opacity="1" d="M0 0 M-3,-15.25 C-3,-15.25 -13.25,-9.25 -13.25,-9.25 C-13.25,-9.25 -2.625,-2.625 -2.625,-2.625 C-2.625,-2.625 7.5,-9.25 7.5,-9.25 C7.5,-9.25 -3,-15.25 -3,-15.25z" style="display: block;"></path></g></g><g transform="matrix(1,0,0,1,130.125,405.25)" opacity="0.06483174628191199" style="user-select: none; display: block;"><g opacity="1" transform="matrix(1.32504,0,0,1.32504,0.80804944,3.0719530400000004)"><path fill="rgb(0,255,246)" fill-opacity="1" d="M0 0 M-3,-15.25 C-3,-15.25 -13.25,-9.25 -13.25,-9.25 C-13.25,-9.25 -2.625,-2.625 -2.625,-2.625 C-2.625,-2.625 7.5,-9.25 7.5,-9.25 C7.5,-9.25 -3,-15.25 -3,-15.25z" style="display: block;"></path></g></g><g transform="matrix(1,0,0,1,200.125,244.25)" opacity="0.06483174628191199" style="user-select: none; display: block;"><g opacity="1" transform="matrix(1.32504,0,0,1.32504,0.80804944,3.0719530400000004)"><path fill="rgb(0,255,246)" fill-opacity="1" d="M0 0 M-3,-15.25 C-3,-15.25 -13.25,-9.25 -13.25,-9.25 C-13.25,-9.25 -2.625,-2.625 -2.625,-2.625 C-2.625,-2.625 7.5,-9.25 7.5,-9.25 C7.5,-9.25 -3,-15.25 -3,-15.25z" style="display: block;"></path></g></g></g><g clip-path="url(#cp_bzHEmb8R)" transform="matrix(1,0,0,1,0,0)" opacity="1" style="display: block;"><g clip-path="url(#cp_IZ0Enn1H)" transform="matrix(1,0,0,1,0,0)" opacity="0.7000000000000001" style="display: block;"><g transform="matrix(0.032673909632915485,0,0,0.04219534948674124,378.80985552416143,347.86081492136174)" opacity="0.8" style="user-select: none; display: block;"><g opacity="1" transform="matrix(1.5790100000000002,0,0,4.05607,-25.387,56.766)"><path fill="rgb(255,255,255)" fill-opacity="0.5" d="M0 0 M0,-2.3105 C6.694547,-2.3105 12.13,-1.27516495 12.13,0 C12.13,1.27516495 6.694547,2.3105 0,2.3105 C-6.694547,2.3105 -12.13,1.27516495 -12.13,0 C-12.13,-1.27516495 -6.694547,-2.3105 0,-2.3105z" style="display: block;"></path><path stroke-linecap="butt" stroke-linejoin="miter" fill-opacity="0" stroke-miterlimit="4" stroke="rgb(255,255,255)" stroke-opacity="1" stroke-width="0.1" d="M0 0 M0,-2.3105 C6.694547,-2.3105 12.13,-1.27516495 12.13,0 C12.13,1.27516495 6.694547,2.3105 0,2.3105 C-6.694547,2.3105 -12.13,1.27516495 -12.13,0 C-12.13,-1.27516495 -6.694547,-2.3105 0,-2.3105z" style="display: block;"></path></g></g><g transform="matrix(0.004257884903690522,0,0,0.005334851933434815,378.10553593522286,351.44793001382504)" opacity="0.3" style="user-select: none; display: block;"><g opacity="1" transform="matrix(1.5790100000000002,0,0,4.05607,-25.387,56.766)"><path fill="rgb(255,255,255)" fill-opacity="0.5" d="M0 0 M0,-2.3105 C6.694547,-2.3105 12.13,-1.27516495 12.13,0 C12.13,1.27516495 6.694547,2.3105 0,2.3105 C-6.694547,2.3105 -12.13,1.27516495 -12.13,0 C-12.13,-1.27516495 -6.694547,-2.3105 0,-2.3105z" style="display: block;"></path><path stroke-linecap="butt" stroke-linejoin="miter" fill-opacity="0" stroke-miterlimit="4" style="display: block;" stroke="rgb(255,255,255)" stroke-opacity="1" stroke-width="0.1" d="M0 0 M0,-2.3105 C6.694547,-2.3105 12.13,-1.27516495 12.13,0 C12.13,1.27516495 6.694547,2.3105 0,2.3105 C-6.694547,2.3105 -12.13,1.27516495 -12.13,0 C-12.13,-1.27516495 -6.694547,-2.3105 0,-2.3105z"></path></g></g><g transform="matrix(1.78867,0,0,2.24108,422.33397462,224.85556824)" opacity="0" style="user-select: none; display: none;"><g opacity="1" transform="matrix(1.5790100000000002,0,0,4.05607,-25.387,56.766)"><path fill="rgb(255,255,255)" fill-opacity="0.5" d="M0 0 M0,-2.3105 C6.694547,-2.3105 12.13,-1.27516495 12.13,0 C12.13,1.27516495 6.694547,2.3105 0,2.3105 C-6.694547,2.3105 -12.13,1.27516495 -12.13,0 C-12.13,-1.27516495 -6.694547,-2.3105 0,-2.3105z" style="display: none;"></path><path stroke-linecap="butt" stroke-linejoin="miter" fill-opacity="0" stroke-miterlimit="4" style="display: none;" stroke="rgb(255,255,255)" stroke-opacity="1" stroke-width="0.1" d="M0 0 M0,-2.3105 C6.694547,-2.3105 12.13,-1.27516495 12.13,0 C12.13,1.27516495 6.694547,2.3105 0,2.3105 C-6.694547,2.3105 -12.13,1.27516495 -12.13,0 C-12.13,-1.27516495 -6.694547,-2.3105 0,-2.3105z"></path></g></g></g><g clip-path="url(#cp_DK6mEerF)" style="display: block;" transform="matrix(1,0,0,1,196,92)" opacity="0.7000000000000001"><g transform="matrix(0.013012850405005376,0,0,0.01680489959195892,378.3225365101385,349.2984729753041)" opacity="0.8" style="user-select: none; display: block;"><g opacity="1" transform="matrix(1.5790100000000002,0,0,4.05607,-25.387,56.766)"><path fill="rgb(255,255,255)" fill-opacity="0.5" d="M0 0 M0,-2.3105 C6.694547,-2.3105 12.13,-1.27516495 12.13,0 C12.13,1.27516495 6.694547,2.3105 0,2.3105 C-6.694547,2.3105 -12.13,1.27516495 -12.13,0 C-12.13,-1.27516495 -6.694547,-2.3105 0,-2.3105z" style="display: block;"></path><path stroke-linecap="butt" stroke-linejoin="miter" fill-opacity="0" stroke-miterlimit="4" style="display: block;" stroke="rgb(255,255,255)" stroke-opacity="1" stroke-width="0.1" d="M0 0 M0,-2.3105 C6.694547,-2.3105 12.13,-1.27516495 12.13,0 C12.13,1.27516495 6.694547,2.3105 0,2.3105 C-6.694547,2.3105 -12.13,1.27516495 -12.13,0 C-12.13,-1.27516495 -6.694547,-2.3105 0,-2.3105z"></path></g></g><g transform="matrix(2.07599,0,0,2.60108,429.45548814,204.47164824)" opacity="0" style="user-select: none; display: none;"><g opacity="1" transform="matrix(1.5790100000000002,0,0,4.05607,-25.387,56.766)"><path fill="rgb(255,255,255)" fill-opacity="0.5" d="M0 0 M0,-2.3105 C6.694547,-2.3105 12.13,-1.27516495 12.13,0 C12.13,1.27516495 6.694547,2.3105 0,2.3105 C-6.694547,2.3105 -12.13,1.27516495 -12.13,0 C-12.13,-1.27516495 -6.694547,-2.3105 0,-2.3105z" style="display: none;"></path><path stroke-linecap="butt" stroke-linejoin="miter" fill-opacity="0" stroke-miterlimit="4" style="display: none;" stroke="rgb(255,255,255)" stroke-opacity="1" stroke-width="0.1" d="M0 0 M0,-2.3105 C6.694547,-2.3105 12.13,-1.27516495 12.13,0 C12.13,1.27516495 6.694547,2.3105 0,2.3105 C-6.694547,2.3105 -12.13,1.27516495 -12.13,0 C-12.13,-1.27516495 -6.694547,-2.3105 0,-2.3105z"></path></g></g><g transform="matrix(1.78867,0,0,2.24108,422.33397462,224.85556824)" opacity="0" style="user-select: none; display: none;"><g opacity="1" transform="matrix(1.5790100000000002,0,0,4.05607,-25.387,56.766)"><path fill="rgb(255,255,255)" fill-opacity="0.5" d="M0 0 M0,-2.3105 C6.694547,-2.3105 12.13,-1.27516495 12.13,0 C12.13,1.27516495 6.694547,2.3105 0,2.3105 C-6.694547,2.3105 -12.13,1.27516495 -12.13,0 C-12.13,-1.27516495 -6.694547,-2.3105 0,-2.3105z" style="display: none;"></path><path stroke-linecap="butt" stroke-linejoin="miter" fill-opacity="0" stroke-miterlimit="4" style="display: none;" stroke="rgb(255,255,255)" stroke-opacity="1" stroke-width="0.1" d="M0 0 M0,-2.3105 C6.694547,-2.3105 12.13,-1.27516495 12.13,0 C12.13,1.27516495 6.694547,2.3105 0,2.3105 C-6.694547,2.3105 -12.13,1.27516495 -12.13,0 C-12.13,-1.27516495 -6.694547,-2.3105 0,-2.3105z"></path></g></g></g><g clip-path="url(#cp_cILH9iMM)" style="display: none;" transform="matrix(1,0,0,1,226,-55)" opacity="0.7000000000000001"><g transform="matrix(1.43867,0,0,1.85791,413.65887462,245.05141998)" opacity="0" style="user-select: none; display: none;"><g opacity="1" transform="matrix(1.5790100000000002,0,0,4.05607,-25.387,56.766)"><path fill="rgb(255,255,255)" fill-opacity="0.5" d="M0 0 M0,-2.3105 C6.694547,-2.3105 12.13,-1.27516495 12.13,0 C12.13,1.27516495 6.694547,2.3105 0,2.3105 C-6.694547,2.3105 -12.13,1.27516495 -12.13,0 C-12.13,-1.27516495 -6.694547,-2.3105 0,-2.3105z" style="display: none;"></path><path stroke-linecap="butt" stroke-linejoin="miter" fill-opacity="0" stroke-miterlimit="4" style="display: none;" stroke="rgb(255,255,255)" stroke-opacity="1" stroke-width="0.1" d="M0 0 M0,-2.3105 C6.694547,-2.3105 12.13,-1.27516495 12.13,0 C12.13,1.27516495 6.694547,2.3105 0,2.3105 C-6.694547,2.3105 -12.13,1.27516495 -12.13,0 C-12.13,-1.27516495 -6.694547,-2.3105 0,-2.3105z"></path></g></g><g transform="matrix(2.07599,0,0,2.60108,429.45548814,204.47164824)" opacity="0" style="user-select: none; display: none;"><g opacity="1" transform="matrix(1.5790100000000002,0,0,4.05607,-25.387,56.766)"><path fill="rgb(255,255,255)" fill-opacity="0.5" d="M0 0 M0,-2.3105 C6.694547,-2.3105 12.13,-1.27516495 12.13,0 C12.13,1.27516495 6.694547,2.3105 0,2.3105 C-6.694547,2.3105 -12.13,1.27516495 -12.13,0 C-12.13,-1.27516495 -6.694547,-2.3105 0,-2.3105z" style="display: none;"></path><path stroke-linecap="butt" stroke-linejoin="miter" fill-opacity="0" stroke-miterlimit="4" style="display: none;" stroke="rgb(255,255,255)" stroke-opacity="1" stroke-width="0.1" d="M0 0 M0,-2.3105 C6.694547,-2.3105 12.13,-1.27516495 12.13,0 C12.13,1.27516495 6.694547,2.3105 0,2.3105 C-6.694547,2.3105 -12.13,1.27516495 -12.13,0 C-12.13,-1.27516495 -6.694547,-2.3105 0,-2.3105z"></path></g></g><g style="user-select: none; display: none;" transform="matrix(1.78867,0,0,2.24108,422.33397462,224.85556824)" opacity="0"><g opacity="1" transform="matrix(1.5790100000000002,0,0,4.05607,-25.387,56.766)"><path style="display: none;" fill="rgb(255,255,255)" fill-opacity="0.5" d="M0 0 M0,-2.3105 C6.694547,-2.3105 12.13,-1.27516495 12.13,0 C12.13,1.27516495 6.694547,2.3105 0,2.3105 C-6.694547,2.3105 -12.13,1.27516495 -12.13,0 C-12.13,-1.27516495 -6.694547,-2.3105 0,-2.3105z"></path><path stroke-linecap="butt" stroke-linejoin="miter" fill-opacity="0" stroke-miterlimit="4" style="display: none;" stroke="rgb(255,255,255)" stroke-opacity="1" stroke-width="0.1" d="M0 0 M0,-2.3105 C6.694547,-2.3105 12.13,-1.27516495 12.13,0 C12.13,1.27516495 6.694547,2.3105 0,2.3105 C-6.694547,2.3105 -12.13,1.27516495 -12.13,0 C-12.13,-1.27516495 -6.694547,-2.3105 0,-2.3105z"></path></g></g></g><g clip-path="url(#cp_StBhw4dg)" style="display: none;" transform="matrix(1,0,0,1,-156,-192)" opacity="0.7000000000000001"><g style="user-select: none; display: none;" transform="matrix(1.43867,0,0,1.85791,413.65887462,245.05141998)" opacity="0"><g opacity="1" transform="matrix(1.5790100000000002,0,0,4.05607,-25.387,56.766)"><path style="display: none;" fill="rgb(255,255,255)" fill-opacity="0.5" d="M0 0 M0,-2.3105 C6.694547,-2.3105 12.13,-1.27516495 12.13,0 C12.13,1.27516495 6.694547,2.3105 0,2.3105 C-6.694547,2.3105 -12.13,1.27516495 -12.13,0 C-12.13,-1.27516495 -6.694547,-2.3105 0,-2.3105z"></path><path stroke-linecap="butt" stroke-linejoin="miter" fill-opacity="0" stroke-miterlimit="4" style="display: none;" stroke="rgb(255,255,255)" stroke-opacity="1" stroke-width="0.1" d="M0 0 M0,-2.3105 C6.694547,-2.3105 12.13,-1.27516495 12.13,0 C12.13,1.27516495 6.694547,2.3105 0,2.3105 C-6.694547,2.3105 -12.13,1.27516495 -12.13,0 C-12.13,-1.27516495 -6.694547,-2.3105 0,-2.3105z"></path></g></g><g style="user-select: none; display: none;" transform="matrix(2.07599,0,0,2.60108,429.45548814,204.47164824)" opacity="0"><g opacity="1" transform="matrix(1.5790100000000002,0,0,4.05607,-25.387,56.766)"><path style="display: none;" fill="rgb(255,255,255)" fill-opacity="0.5" d="M0 0 M0,-2.3105 C6.694547,-2.3105 12.13,-1.27516495 12.13,0 C12.13,1.27516495 6.694547,2.3105 0,2.3105 C-6.694547,2.3105 -12.13,1.27516495 -12.13,0 C-12.13,-1.27516495 -6.694547,-2.3105 0,-2.3105z"></path><path stroke-linecap="butt" stroke-linejoin="miter" fill-opacity="0" stroke-miterlimit="4" style="display: none;" stroke="rgb(255,255,255)" stroke-opacity="1" stroke-width="0.1" d="M0 0 M0,-2.3105 C6.694547,-2.3105 12.13,-1.27516495 12.13,0 C12.13,1.27516495 6.694547,2.3105 0,2.3105 C-6.694547,2.3105 -12.13,1.27516495 -12.13,0 C-12.13,-1.27516495 -6.694547,-2.3105 0,-2.3105z"></path></g></g><g style="user-select: none; display: none;" transform="matrix(1.78867,0,0,2.24108,422.33397462,224.85556824)" opacity="0"><g opacity="1" transform="matrix(1.5790100000000002,0,0,4.05607,-25.387,56.766)"><path style="display: none;" fill="rgb(255,255,255)" fill-opacity="0.5" d="M0 0 M0,-2.3105 C6.694547,-2.3105 12.13,-1.27516495 12.13,0 C12.13,1.27516495 6.694547,2.3105 0,2.3105 C-6.694547,2.3105 -12.13,1.27516495 -12.13,0 C-12.13,-1.27516495 -6.694547,-2.3105 0,-2.3105z"></path><path stroke-linecap="butt" stroke-linejoin="miter" fill-opacity="0" stroke-miterlimit="4" style="display: none;" stroke="rgb(255,255,255)" stroke-opacity="1" stroke-width="0.1" d="M0 0 M0,-2.3105 C6.694547,-2.3105 12.13,-1.27516495 12.13,0 C12.13,1.27516495 6.694547,2.3105 0,2.3105 C-6.694547,2.3105 -12.13,1.27516495 -12.13,0 C-12.13,-1.27516495 -6.694547,-2.3105 0,-2.3105z"></path></g></g></g><g clip-path="url(#cp_2WOmirOA)" style="display: none;" transform="matrix(1,0,0,1,-228,-128)" opacity="0.7000000000000001"><g style="user-select: none; display: none;" transform="matrix(1.43867,0,0,1.85791,413.65887462,245.05141998)" opacity="0"><g opacity="1" transform="matrix(1.5790100000000002,0,0,4.05607,-25.387,56.766)"><path style="display: none;" fill="rgb(255,255,255)" fill-opacity="0.5" d="M0 0 M0,-2.3105 C6.694547,-2.3105 12.13,-1.27516495 12.13,0 C12.13,1.27516495 6.694547,2.3105 0,2.3105 C-6.694547,2.3105 -12.13,1.27516495 -12.13,0 C-12.13,-1.27516495 -6.694547,-2.3105 0,-2.3105z"></path><path stroke-linecap="butt" stroke-linejoin="miter" fill-opacity="0" stroke-miterlimit="4" style="display: none;" stroke="rgb(255,255,255)" stroke-opacity="1" stroke-width="0.1" d="M0 0 M0,-2.3105 C6.694547,-2.3105 12.13,-1.27516495 12.13,0 C12.13,1.27516495 6.694547,2.3105 0,2.3105 C-6.694547,2.3105 -12.13,1.27516495 -12.13,0 C-12.13,-1.27516495 -6.694547,-2.3105 0,-2.3105z"></path></g></g><g style="user-select: none; display: none;" transform="matrix(2.07599,0,0,2.60108,429.45548814,204.47164824)" opacity="0"><g opacity="1" transform="matrix(1.5790100000000002,0,0,4.05607,-25.387,56.766)"><path style="display: none;" fill="rgb(255,255,255)" fill-opacity="0.5" d="M0 0 M0,-2.3105 C6.694547,-2.3105 12.13,-1.27516495 12.13,0 C12.13,1.27516495 6.694547,2.3105 0,2.3105 C-6.694547,2.3105 -12.13,1.27516495 -12.13,0 C-12.13,-1.27516495 -6.694547,-2.3105 0,-2.3105z"></path><path stroke-linecap="butt" stroke-linejoin="miter" fill-opacity="0" stroke-miterlimit="4" style="display: none;" stroke="rgb(255,255,255)" stroke-opacity="1" stroke-width="0.1" d="M0 0 M0,-2.3105 C6.694547,-2.3105 12.13,-1.27516495 12.13,0 C12.13,1.27516495 6.694547,2.3105 0,2.3105 C-6.694547,2.3105 -12.13,1.27516495 -12.13,0 C-12.13,-1.27516495 -6.694547,-2.3105 0,-2.3105z"></path></g></g><g style="user-select: none; display: none;" transform="matrix(1.78867,0,0,2.24108,422.33397462,224.85556824)" opacity="0"><g opacity="1" transform="matrix(1.5790100000000002,0,0,4.05607,-25.387,56.766)"><path style="display: none;" fill="rgb(255,255,255)" fill-opacity="0.5" d="M0 0 M0,-2.3105 C6.694547,-2.3105 12.13,-1.27516495 12.13,0 C12.13,1.27516495 6.694547,2.3105 0,2.3105 C-6.694547,2.3105 -12.13,1.27516495 -12.13,0 C-12.13,-1.27516495 -6.694547,-2.3105 0,-2.3105z"></path><path stroke-linecap="butt" stroke-linejoin="miter" fill-opacity="0" stroke-miterlimit="4" style="display: none;" stroke="rgb(255,255,255)" stroke-opacity="1" stroke-width="0.1" d="M0 0 M0,-2.3105 C6.694547,-2.3105 12.13,-1.27516495 12.13,0 C12.13,1.27516495 6.694547,2.3105 0,2.3105 C-6.694547,2.3105 -12.13,1.27516495 -12.13,0 C-12.13,-1.27516495 -6.694547,-2.3105 0,-2.3105z"></path></g></g></g><g clip-path="url(#cp_CCLui3Em)" transform="matrix(1,0,0,1,-229,3)" opacity="0.7000000000000001" style="display: block;"><g transform="matrix(0.032673909632915485,0,0,0.04219534948674124,378.80985552416143,347.86081492136174)" opacity="0.8" style="user-select: none; display: block;"><g opacity="1" transform="matrix(1.5790100000000002,0,0,4.05607,-25.387,56.766)"><path fill="rgb(255,255,255)" fill-opacity="0.5" d="M0 0 M0,-2.3105 C6.694547,-2.3105 12.13,-1.27516495 12.13,0 C12.13,1.27516495 6.694547,2.3105 0,2.3105 C-6.694547,2.3105 -12.13,1.27516495 -12.13,0 C-12.13,-1.27516495 -6.694547,-2.3105 0,-2.3105z" style="display: block;"></path><path stroke-linecap="butt" stroke-linejoin="miter" fill-opacity="0" stroke-miterlimit="4" stroke="rgb(255,255,255)" stroke-opacity="1" stroke-width="0.1" d="M0 0 M0,-2.3105 C6.694547,-2.3105 12.13,-1.27516495 12.13,0 C12.13,1.27516495 6.694547,2.3105 0,2.3105 C-6.694547,2.3105 -12.13,1.27516495 -12.13,0 C-12.13,-1.27516495 -6.694547,-2.3105 0,-2.3105z" style="display: block;"></path></g></g><g transform="matrix(0.004257884903690522,0,0,0.005334851933434815,378.10553593522286,351.44793001382504)" opacity="0.3" style="user-select: none; display: block;"><g opacity="1" transform="matrix(1.5790100000000002,0,0,4.05607,-25.387,56.766)"><path fill="rgb(255,255,255)" fill-opacity="0.5" d="M0 0 M0,-2.3105 C6.694547,-2.3105 12.13,-1.27516495 12.13,0 C12.13,1.27516495 6.694547,2.3105 0,2.3105 C-6.694547,2.3105 -12.13,1.27516495 -12.13,0 C-12.13,-1.27516495 -6.694547,-2.3105 0,-2.3105z" style="display: block;"></path><path stroke-linecap="butt" stroke-linejoin="miter" fill-opacity="0" stroke-miterlimit="4" style="display: block;" stroke="rgb(255,255,255)" stroke-opacity="1" stroke-width="0.1" d="M0 0 M0,-2.3105 C6.694547,-2.3105 12.13,-1.27516495 12.13,0 C12.13,1.27516495 6.694547,2.3105 0,2.3105 C-6.694547,2.3105 -12.13,1.27516495 -12.13,0 C-12.13,-1.27516495 -6.694547,-2.3105 0,-2.3105z"></path></g></g><g transform="matrix(1.78867,0,0,2.24108,422.33397462,224.85556824)" opacity="0" style="user-select: none; display: none;"><g opacity="1" transform="matrix(1.5790100000000002,0,0,4.05607,-25.387,56.766)"><path fill="rgb(255,255,255)" fill-opacity="0.5" d="M0 0 M0,-2.3105 C6.694547,-2.3105 12.13,-1.27516495 12.13,0 C12.13,1.27516495 6.694547,2.3105 0,2.3105 C-6.694547,2.3105 -12.13,1.27516495 -12.13,0 C-12.13,-1.27516495 -6.694547,-2.3105 0,-2.3105z" style="display: none;"></path><path stroke-linecap="butt" stroke-linejoin="miter" fill-opacity="0" stroke-miterlimit="4" style="display: none;" stroke="rgb(255,255,255)" stroke-opacity="1" stroke-width="0.1" d="M0 0 M0,-2.3105 C6.694547,-2.3105 12.13,-1.27516495 12.13,0 C12.13,1.27516495 6.694547,2.3105 0,2.3105 C-6.694547,2.3105 -12.13,1.27516495 -12.13,0 C-12.13,-1.27516495 -6.694547,-2.3105 0,-2.3105z"></path></g></g></g></g><g class="png" transform="matrix(1,0,0,1,0,0)" opacity="1"><image width="800px" height="600px" preserveAspectRatio="xMidYMid slice" xlink:href="img/Artboard1.png"></image></g></g></svg>